#!OML:ASF F:\VICON\USERDATA\INSTALL\rory3\rory3.ASF
:FULLY-SPECIFIED
:DEGREES
656
root 1.80342 33.2744 -4.53164 -167.044 -22.1825 181.046
lowerback 6.48791 -3.77728 -6.49634
upperback -1.19995 -5.52358 1.12897
thorax -4.16308 -2.56822 5.33295
lowerneck -25.4204 -3.77742 -13.3258
upperneck 25.8358 -2.53873 6.91964
head 13.1902 -1.64003 4.45214
rclavicle 3.06128e-014 3.02153e-014
rhumerus -46.1909 9.2108 -84.1791
rradius 96.1437
rwrist 52.7208
rhand 22.6651 -1.28661
rfingers 7.12502
rthumb 47.0093 -23.9487
lclavicle 3.06128e-014 3.02153e-014
lhumerus -17.6753 -16.0737 91.8353
lradius 60.5294
lwrist 6.2537
lhand -19.5854 14.7806
lfingers 7.12502
lthumb 6.74004 44.6533
rfemur -25.3204 4.45546 22.2372
rtibia 48.2416
rfoot -25.0457 -0.99939
rtoes -8.66885
lfemur -28.5324 10.0837 -25.9506
ltibia 35.8685
lfoot -15.0238 -0.805874
ltoes -11.0822
657
root 1.79335 33.3117 -4.51975 -166.76 -22.5553 181.095
lowerback 6.48242 -3.96931 -5.9033
upperback -1.41734 -5.73818 1.09935
thorax -4.41736 -2.6742 5.00056
lowerneck -25.2996 -3.68578 -13.3132
upperneck 25.9481 -2.44422 6.89987
head 13.1994 -1.61153 4.46158
rclavicle 2.48481e-014 -3.33958e-014
rhumerus -46.2619 9.8329 -84.5025
rradius 97.395
rwrist 52.7186
rhand 24.1263 -1.86742
rfingers 7.12502
rthumb 48.3578 -23.9116
lclavicle 2.48481e-014 -3.33958e-014
lhumerus -18.0446 -15.9674 91.7431
lradius 60.3489
lwrist 5.92876
lhand -19.6747 15.1534
lfingers 7.12502
lthumb 6.65388 45.0288
rfemur -25.7627 3.43627 22.3998
rtibia 47.4784
rfoot -25.2318 -0.864951
rtoes -8.25436
lfemur -28.5605 9.31717 -25.8392
ltibia 35.3701
lfoot -14.6218 -0.657822
ltoes -9.98759
658
root 1.79504 33.353 -4.52897 -166.595 -22.6389 181.084
lowerback 6.38543 -4.15366 -5.78476
upperback -1.52907 -5.96691 1.19978
thorax -4.45208 -2.78596 5.05418
lowerneck -25.4948 -3.55969 -13.5281
upperneck 26.185 -2.16452 6.90731
head 13.3047 -1.5217 4.56086
rclavicle -3.16068e-014 1.19271e-014
rhumerus -46.2157 10.8199 -84.7114
rradius 98.907
rwrist 52.7018
rhand 25.994 -2.40853
rfingers 7.12502
rthumb 50.0721 -23.5933
lclavicle -3.16068e-014 1.19271e-014
lhumerus -18.2736 -15.5445 91.643
lradius 60.0639
lwrist 5.60104
lhand -20.0201 15.3902
lfingers 7.12502
lthumb 6.32043 45.2759
rfemur -25.9304 3.18823 22.527
rtibia 46.632
rfoot -25.5056 -1.02881
rtoes -7.76698
lfemur -28.4367 9.00414 -25.7988
ltibia 34.7937
lfoot -13.9984 -0.394748
ltoes -10.1064
659
root 1.79031 33.3851 -4.54365 -166.57 -22.3959 180.951
lowerback 6.23118 -4.20605 -5.7788
upperback -1.47613 -6.02743 1.15735
thorax -4.30694 -2.82415 4.99342
lowerneck -25.6678 -3.45438 -13.6144
upperneck 26.3228 -1.96096 6.91927
head 13.3718 -1.44551 4.62384
rclavicle -2.48481e-014 7.15625e-015
rhumerus -45.9527 11.7643 -85.1332
rradius 100.197
rwrist 52.7733
rhand 27.7525 -3.13414
rfingers 7.12502
rthumb 51.6755 -23.4306
lclavicle -2.48481e-014 7.15625e-015
lhumerus -18.2907 -15.1678 91.4462
lradius 59.7491
lwrist 5.3312
lhand -20.423 15.4736
lfingers 7.12502
lthumb 5.93139 45.3706
rfemur -25.9375 3.17546 22.4471
rtibia 45.7471
rfoot -25.7547 -1.14867
rtoes -8.50328
lfemur -28.0078 8.91077 -25.9145
ltibia 34.1263
lfoot -13.5093 -0.048274
ltoes -10.3214
660
root 1.78655 33.4136 -4.55758 -166.57 -22.1777 180.693
lowerback 6.22334 -4.24873 -5.98105
upperback -1.45809 -6.0997 1.16094
thorax -4.2542 -2.85744 5.11216
lowerneck -25.6172 -3.3356 -13.7799
upperneck 26.3797 -1.732 6.89509
head 13.3581 -1.37326 4.68471
rclavicle 4.17448e-015 -2.14687e-014
rhumerus -45.7221 12.8522 -85.6414
rradius 101.269
rwrist 52.9539
rhand 29.3141 -4.03229
rfingers 7.12502
rthumb 53.0892 -23.468
lclavicle 4.17448e-015 -2.14687e-014
lhumerus -18.4559 -14.6816 91.4043
lradius 59.4738
lwrist 4.99885
lhand -20.6577 15.6043
lfingers 7.12502
lthumb 5.70486 45.5075
rfemur -26.0718 2.99307 22.2289
rtibia 44.8349
rfoot -25.7103 -1.31548
rtoes -9.95859
lfemur -27.4592 8.57314 -26.084
ltibia 33.4496
lfoot -13.1063 0.395624
ltoes -10.34
661
root 1.77887 33.442 -4.57431 -166.551 -21.8959 180.496
lowerback 6.06831 -4.26946 -5.93047
upperback -1.42845 -6.11948 1.02689
thorax -4.15282 -2.87554 4.9297
lowerneck -25.5624 -3.21778 -13.8054
upperneck 26.4477 -1.58128 6.92493
head 13.3555 -1.3133 4.73028
rclavicle 1.11319e-014 4.77083e-015
rhumerus -45.6051 13.8243 -86.3272
rradius 102.361
rwrist 53.1567
rhand 30.8343 -4.96399
rfingers 7.12502
rthumb 54.4554 -23.4894
lclavicle 1.11319e-014 4.77083e-015
lhumerus -18.711 -14.4534 91.178
lradius 59.279
lwrist 4.75089
lhand -20.7831 15.6341
lfingers 7.12502
lthumb 5.58381 45.5406
rfemur -26.1684 2.71633 22.0544
rtibia 43.908
rfoot -25.6175 -1.02625
rtoes -10.1172
lfemur -26.9729 8.20219 -26.1969
ltibia 32.8725
lfoot -12.743 0.932799
ltoes -10.5457
662
root 1.77265 33.4639 -4.59596 -166.531 -21.4836 180.328
lowerback 5.95873 -4.20676 -5.94468
upperback -1.54726 -6.04217 0.889347
thorax -4.23874 -2.83311 4.78627
lowerneck -25.2644 -3.06935 -13.7472
upperneck 26.5748 -1.46228 6.89679
head 13.3308 -1.27801 4.73074
rclavicle 2.74323e-014 1.59028e-015
rhumerus -45.7665 14.686 -86.9794
rradius 103.503
rwrist 53.3637
rhand 32.4775 -5.84046
rfingers 7.12502
rthumb 55.9194 -23.2925
lclavicle 2.74323e-014 1.59028e-015
lhumerus -19.2384 -14.311 91.0906
lradius 59.1521
lwrist 4.53003
lhand -20.9751 15.6643
lfingers 7.12502
lthumb 5.39837 45.5756
rfemur -26.128 2.50553 21.9324
rtibia 42.9674
rfoot -25.5368 -0.541901
rtoes -8.94667
lfemur -26.5949 7.99109 -26.3252
ltibia 32.4576
lfoot -12.4882 1.52889
ltoes -11.327
